<svg width="49" height="50" viewBox="0 0 49 50" fill="none" xmlns="http://www.w3.org/2000/svg">
<rect width="49" height="50" rx="4" fill="#262626"/>
<path d="M45.9126 25.0574C45.9126 12.5967 36.1419 2.59735 23.9661 2.59735C11.7902 2.59735 2.01953 12.5967 2.01953 25.0574C2.01953 36.2874 9.98642 45.6713 20.5087 47.3635V31.5185H14.9469V25.0574H20.5087V20.1346C20.5087 14.4427 23.8157 11.366 28.7763 11.366C31.1814 11.366 33.7368 11.8275 33.7368 11.8275V17.3656H31.031C28.3253 17.3656 27.4234 19.0578 27.4234 20.9038V25.0574H33.5865L32.6845 31.5185H27.5737V47.2097C37.9457 45.6713 45.9126 36.2874 45.9126 25.0574Z" fill="#262626"/>
<path d="M29.7904 26.9924L30.6923 20.5313H24.5293V16.3777C24.5293 14.5317 25.4312 12.8395 28.1369 12.8395H30.8426V7.30141C30.8426 7.30141 28.2872 6.8399 25.8821 6.8399C20.9216 6.8399 17.6146 9.91662 17.6146 15.6085V20.5313H12.2031V26.9924H17.7649V42.6836C18.8171 42.8374 20.0197 42.9913 21.2222 42.9913C22.4248 42.9913 23.477 42.8374 24.6796 42.6836V26.9924H29.7904Z" fill="white"/>
</svg>
