<svg width="50" height="50" viewBox="0 0 50 50" fill="none" xmlns="http://www.w3.org/2000/svg">
<rect width="50" height="50" rx="4" fill="#262626"/>
<path d="M24.8956 49.1259C37.8814 49.1259 48.4085 38.3526 48.4085 25.063C48.4085 11.7734 37.8814 1 24.8956 1C11.9099 1 1.38281 11.7734 1.38281 25.063C1.38281 38.3526 11.9099 49.1259 24.8956 49.1259Z" fill="#262626"/>
<path d="M32.1456 15.9957C31.1793 15.9957 30.5352 16.655 30.5352 17.6439C30.5352 18.6328 31.3404 19.292 32.1456 19.292C33.1119 19.292 33.7561 18.6328 33.7561 17.6439C33.7561 16.8198 33.1119 15.9957 32.1456 15.9957Z" fill="white"/>
<path d="M25.0608 18.1425C21.3568 18.1425 18.2969 21.2739 18.2969 25.0647C18.2969 28.8554 21.3568 31.9869 25.0608 31.9869C28.7649 31.9869 31.8248 28.8554 31.8248 25.0647C31.8248 21.2739 28.7649 18.1425 25.0608 18.1425ZM25.0608 29.5147C22.6451 29.5147 20.7126 27.5369 20.7126 25.0647C20.7126 22.5925 22.6451 20.6147 25.0608 20.6147C27.4765 20.6147 29.4091 22.5925 29.4091 25.0647C29.4091 27.5369 27.4765 29.5147 25.0608 29.5147Z" fill="white"/>
<path d="M30.3755 39.2381H19.4243C14.915 39.2381 11.2109 35.4474 11.2109 30.8326V19.6252C11.2109 15.0103 14.915 11.2196 19.4243 11.2196H30.3755C34.8848 11.2196 38.5889 15.0103 38.5889 19.6252V30.6677C38.7499 35.4474 35.0459 39.2381 30.3755 39.2381ZM19.4243 13.6918C16.2034 13.6918 13.7877 16.3289 13.7877 19.4603V30.6677C13.7877 33.964 16.3644 36.4363 19.4243 36.4363H30.3755C33.5964 36.4363 36.0121 33.7992 36.0121 30.6677V19.4603C36.0121 16.164 33.4354 13.6918 30.3755 13.6918H19.4243Z" fill="white"/>
</svg>
