<svg width="190" height="36" viewBox="0 0 190 36" fill="none" xmlns="http://www.w3.org/2000/svg">
<path d="M3.12 35.585C2.76 35.585 2.37 35.51 1.95 35.36C1.56 35.24 1.215 35.045 0.915 34.775C0.615 34.505 0.465 34.16 0.465 33.74C0.465 33.56 0.54 32.945 0.69 31.895C0.84 30.845 1.035 29.495 1.275 27.845C1.545 26.195 1.815 24.41 2.085 22.49C2.385 20.54 2.685 18.575 2.985 16.595C3.285 14.585 3.555 12.725 3.795 11.015C4.035 9.275 4.215 7.805 4.335 6.605C4.365 6.305 4.41 6.095 4.47 5.975C4.53 5.855 4.65 5.78 4.83 5.75C5.01 5.69 5.265 5.66 5.595 5.66C6.135 5.66 6.675 5.705 7.215 5.795C7.755 5.855 8.25 5.96 8.7 6.11C9.18 6.26 9.57 6.44 9.87 6.65C10.2 6.86 10.395 7.115 10.455 7.415C10.965 8.705 11.52 10.175 12.12 11.825C12.72 13.445 13.335 15.125 13.965 16.865C14.625 18.575 15.27 20.255 15.9 21.905C16.53 23.525 17.1 25.025 17.61 26.405C18.15 27.755 18.615 28.88 19.005 29.78C19.635 28.67 20.325 27.395 21.075 25.955C21.855 24.515 22.65 23 23.46 21.41C24.3 19.82 25.125 18.245 25.935 16.685C26.775 15.125 27.54 13.655 28.23 12.275C28.95 10.865 29.58 9.635 30.12 8.585C30.66 7.505 31.065 6.695 31.335 6.155C31.425 5.945 31.545 5.81 31.695 5.75C31.875 5.69 32.175 5.66 32.595 5.66C33.015 5.66 33.48 5.705 33.99 5.795C34.5 5.855 34.995 5.96 35.475 6.11C35.955 6.23 36.345 6.41 36.645 6.65C36.975 6.89 37.14 7.175 37.14 7.505C37.14 8.585 37.14 9.755 37.14 11.015C37.17 12.275 37.2 13.595 37.23 14.975C37.26 16.355 37.29 17.765 37.32 19.205C37.35 20.645 37.38 22.085 37.41 23.525C37.44 24.965 37.455 26.36 37.455 27.71C37.485 29.06 37.5 30.35 37.5 31.58C37.53 32.78 37.545 33.875 37.545 34.865C37.545 35.135 37.47 35.315 37.32 35.405C37.17 35.525 36.9 35.585 36.51 35.585C35.97 35.585 35.385 35.51 34.755 35.36C34.155 35.24 33.63 35.045 33.18 34.775C32.76 34.475 32.55 34.115 32.55 33.695C32.55 32.885 32.565 31.865 32.595 30.635C32.625 29.405 32.655 28.085 32.685 26.675C32.715 25.265 32.715 23.9 32.685 22.58C32.715 20.72 32.715 18.965 32.685 17.315C32.655 15.665 32.625 14.24 32.595 13.04C32.565 11.81 32.55 10.97 32.55 10.52C32.04 11.51 31.395 12.74 30.615 14.21C29.835 15.68 28.965 17.315 28.005 19.115C27.075 20.885 26.115 22.715 25.125 24.605C24.165 26.465 23.22 28.28 22.29 30.05C21.36 31.82 20.535 33.44 19.815 34.91C19.725 35.12 19.605 35.285 19.455 35.405C19.305 35.525 19.065 35.585 18.735 35.585C18.165 35.585 17.625 35.51 17.115 35.36C16.605 35.24 16.185 35.06 15.855 34.82C15.555 34.58 15.375 34.31 15.315 34.01C14.955 33.05 14.475 31.79 13.875 30.23C13.275 28.64 12.63 26.915 11.94 25.055C11.28 23.195 10.605 21.35 9.915 19.52C9.225 17.69 8.595 16.025 8.025 14.525C7.485 13.025 7.035 11.84 6.675 10.97C6.525 12.08 6.345 13.37 6.135 14.84C5.955 16.31 5.745 17.885 5.505 19.565C5.295 21.215 5.085 22.865 4.875 24.515C4.695 26.165 4.515 27.71 4.335 29.15C4.155 30.59 4.005 31.835 3.885 32.885C3.795 33.935 3.735 34.67 3.705 35.09C3.675 35.42 3.48 35.585 3.12 35.585ZM53.3288 35.585C51.9188 35.585 50.6138 35.435 49.4138 35.135C48.2438 34.835 47.2088 34.325 46.3088 33.605C45.4388 32.855 44.7488 31.805 44.2388 30.455C43.7588 29.075 43.5188 27.305 43.5188 25.145C43.5188 21.725 43.9988 19.01 44.9588 17C45.9188 14.99 47.2088 13.565 48.8288 12.725C50.4788 11.855 52.2788 11.42 54.2288 11.42C55.6388 11.42 56.9288 11.57 58.0988 11.87C59.2988 12.17 60.3338 12.695 61.2038 13.445C62.1038 14.165 62.7938 15.215 63.2738 16.595C63.7838 17.945 64.0388 19.7 64.0388 21.86C64.0388 25.28 63.5588 27.995 62.5988 30.005C61.6388 32.015 60.3488 33.455 58.7288 34.325C57.1388 35.165 55.3388 35.585 53.3288 35.585ZM53.1488 33.56C55.0988 33.56 56.6138 32.57 57.6938 30.59C58.7738 28.58 59.3138 25.67 59.3138 21.86C59.3138 19.79 59.1488 18.14 58.8188 16.91C58.4888 15.68 57.9638 14.81 57.2438 14.3C56.5238 13.76 55.5638 13.49 54.3638 13.49C52.4438 13.49 50.9288 14.495 49.8188 16.505C48.7388 18.485 48.1988 21.38 48.1988 25.19C48.1988 27.23 48.3638 28.865 48.6938 30.095C49.0238 31.325 49.5488 32.21 50.2688 32.75C51.0188 33.29 51.9788 33.56 53.1488 33.56ZM59.3823 14.66C59.1723 14.66 58.8423 14.51 58.3923 14.21C57.9423 13.88 57.3723 13.52 56.6823 13.13C56.6223 12.92 56.4873 12.74 56.2773 12.59C56.0673 12.41 55.9323 12.275 55.8723 12.185C55.7823 12.065 55.8423 12.005 56.0523 12.005C57.1623 12.095 58.1373 12.185 58.9773 12.275C59.8173 12.365 60.7323 12.44 61.7223 12.5C62.6823 12.56 63.8673 12.59 65.2773 12.59C65.5173 12.59 65.9973 12.59 66.7173 12.59C67.4073 12.59 68.1723 12.59 69.0123 12.59C69.8523 12.56 70.6023 12.545 71.2623 12.545C71.9223 12.545 72.3273 12.545 72.4773 12.545C72.8073 12.545 73.1073 12.65 73.3773 12.86C73.6473 13.04 73.7523 13.385 73.6923 13.895C73.6923 14.195 73.6473 14.405 73.5573 14.525C73.4973 14.615 73.3323 14.66 73.0623 14.66C72.8223 14.66 72.4023 14.66 71.8023 14.66C71.0823 14.66 70.1673 14.66 69.0573 14.66C67.9773 14.66 66.8223 14.66 65.5923 14.66C64.3623 14.66 63.2073 14.66 62.1273 14.66C61.0173 14.66 60.1023 14.66 59.3823 14.66ZM75.3573 35.585C73.8273 35.585 72.7323 35.075 72.0723 34.055C71.4423 33.005 71.1273 31.295 71.1273 28.925C71.1273 27.575 71.1573 26.165 71.2173 24.695C71.2773 23.225 71.3523 21.83 71.4423 20.51C71.5623 19.19 71.6523 18.05 71.7123 17.09C71.8023 16.13 71.8623 15.485 71.8923 15.155H69.2823C69.1323 15.155 69.0273 15.11 68.9673 15.02C68.9073 14.93 68.8773 14.765 68.8773 14.525C68.8773 13.985 68.9523 13.52 69.1023 13.13C69.2523 12.74 69.5073 12.545 69.8673 12.545H71.9823C72.0123 12.065 72.0423 11.495 72.0723 10.835C72.1323 10.145 72.1923 9.47 72.2523 8.81C72.3123 8.12 72.3573 7.55 72.3873 7.1C72.4473 6.62 72.4773 6.35 72.4773 6.29C72.4773 6.08 72.5223 5.93 72.6123 5.84C72.7023 5.75 72.8973 5.705 73.1973 5.705C73.8273 5.705 74.4573 5.78 75.0873 5.93C75.7173 6.08 76.2423 6.305 76.6623 6.605C77.1123 6.905 77.3373 7.295 77.3373 7.775C77.3373 7.865 77.3073 8.18 77.2473 8.72C77.1873 9.26 77.1123 9.875 77.0223 10.565C76.9623 11.255 76.8873 11.915 76.7973 12.545H83.5923C83.7423 12.545 83.8473 12.59 83.9073 12.68C83.9673 12.74 83.9973 12.905 83.9973 13.175C83.9973 13.685 83.9223 14.15 83.7723 14.57C83.6223 14.96 83.3523 15.155 82.9623 15.155H76.6623C76.6023 15.455 76.5273 16.055 76.4373 16.955C76.3473 17.825 76.2573 18.875 76.1673 20.105C76.0773 21.305 75.9873 22.58 75.8973 23.93C75.8373 25.25 75.8073 26.555 75.8073 27.845C75.8073 29.075 75.8673 30.035 75.9873 30.725C76.1073 31.385 76.3173 31.85 76.6173 32.12C76.9173 32.36 77.2923 32.48 77.7423 32.48C78.2223 32.48 78.8223 32.33 79.5423 32.03C80.2623 31.73 80.9373 31.295 81.5673 30.725C81.8673 30.485 82.0923 30.32 82.2423 30.23C82.4223 30.11 82.5573 30.05 82.6473 30.05C82.7973 30.05 82.9173 30.185 83.0073 30.455C83.0973 30.725 83.1423 31.01 83.1423 31.31C83.1423 31.7 83.0523 32 82.8723 32.21C82.0923 32.99 81.2673 33.635 80.3973 34.145C79.5573 34.625 78.7023 34.985 77.8323 35.225C76.9923 35.465 76.1673 35.585 75.3573 35.585ZM81.985 15.155C81.895 15.155 81.835 15.11 81.805 15.02C81.745 14.9 81.7 14.78 81.67 14.66C81.64 14.51 81.625 14.405 81.625 14.345C81.625 13.925 81.715 13.52 81.895 13.13C82.045 12.74 82.285 12.545 82.615 12.545H93.64C93.31 12.695 92.965 12.905 92.605 13.175C92.245 13.445 91.9 13.715 91.57 13.985C91.24 14.255 90.955 14.525 90.715 14.795C90.535 14.885 90.28 14.96 89.95 15.02C89.65 15.05 89.215 15.08 88.645 15.11C88.105 15.14 87.37 15.155 86.44 15.155H81.985ZM97.4041 35.585C95.9941 35.585 94.6891 35.435 93.4891 35.135C92.3191 34.835 91.2841 34.325 90.3841 33.605C89.5141 32.855 88.8241 31.805 88.3141 30.455C87.8341 29.075 87.5941 27.305 87.5941 25.145C87.5941 21.725 88.0741 19.01 89.0341 17C89.9941 14.99 91.2841 13.565 92.9041 12.725C94.5541 11.855 96.3541 11.42 98.3041 11.42C99.7141 11.42 101.004 11.57 102.174 11.87C103.374 12.17 104.409 12.695 105.279 13.445C106.179 14.165 106.869 15.215 107.349 16.595C107.859 17.945 108.114 19.7 108.114 21.86C108.114 25.28 107.634 27.995 106.674 30.005C105.714 32.015 104.424 33.455 102.804 34.325C101.214 35.165 99.4141 35.585 97.4041 35.585ZM97.2241 33.56C99.1741 33.56 100.689 32.57 101.769 30.59C102.849 28.58 103.389 25.67 103.389 21.86C103.389 19.79 103.224 18.14 102.894 16.91C102.564 15.68 102.039 14.81 101.319 14.3C100.599 13.76 99.6391 13.49 98.4391 13.49C96.5191 13.49 95.0041 14.495 93.8941 16.505C92.8141 18.485 92.2741 21.38 92.2741 25.19C92.2741 27.23 92.4391 28.865 92.7691 30.095C93.0991 31.325 93.6241 32.21 94.3441 32.75C95.0941 33.29 96.0541 33.56 97.2241 33.56ZM114.303 14.165C113.973 14.165 113.448 14.18 112.728 14.21C112.038 14.21 111.258 14.225 110.388 14.255C109.488 14.255 108.588 14.255 107.688 14.255C106.758 14.255 105.903 14.255 105.123 14.255C104.343 14.225 103.728 14.18 103.278 14.12C103.038 14.06 102.738 13.97 102.378 13.85C101.988 13.7 101.643 13.49 101.343 13.22C100.983 12.92 100.623 12.635 100.263 12.365C99.8727 12.095 99.6177 11.885 99.4977 11.735C99.3477 11.555 99.4077 11.465 99.6777 11.465C100.398 11.525 101.508 11.615 103.008 11.735C104.508 11.825 106.338 11.93 108.498 12.05C109.248 12.05 110.013 12.065 110.793 12.095C111.543 12.095 112.308 12.095 113.088 12.095C113.898 12.095 114.768 12.08 115.698 12.05C115.908 12.05 116.028 12.125 116.058 12.275C116.088 12.395 116.088 12.56 116.058 12.77C116.028 12.95 115.968 13.13 115.878 13.31C115.758 13.61 115.563 13.835 115.293 13.985C115.053 14.105 114.723 14.165 114.303 14.165ZM121.683 35.585C121.113 35.585 120.543 35.51 119.973 35.36C119.403 35.24 118.923 35.045 118.533 34.775C118.173 34.475 117.963 34.145 117.903 33.785C117.423 30.875 116.958 28.28 116.508 26C116.058 23.72 115.623 21.74 115.203 20.06C114.813 18.38 114.468 16.97 114.168 15.83C113.868 14.69 113.613 13.82 113.403 13.22C113.223 12.59 113.133 12.215 113.133 12.095C113.133 11.855 113.208 11.69 113.358 11.6C113.538 11.48 113.838 11.42 114.258 11.42C114.798 11.42 115.323 11.465 115.833 11.555C116.343 11.645 116.808 11.78 117.228 11.96C117.648 12.14 117.993 12.395 118.263 12.725C118.533 13.025 118.713 13.415 118.803 13.895C118.893 14.195 119.028 14.795 119.208 15.695C119.418 16.565 119.643 17.6 119.883 18.8C120.153 20 120.423 21.26 120.693 22.58C120.963 23.9 121.203 25.175 121.413 26.405C121.653 27.635 121.863 28.715 122.043 29.645C122.103 30.035 122.163 30.395 122.223 30.725C122.283 31.025 122.358 31.25 122.448 31.4C123.138 30.35 123.858 29.06 124.608 27.53C125.388 25.97 126.093 24.29 126.723 22.49C127.383 20.66 127.848 18.845 128.118 17.045C128.208 16.385 128.253 15.74 128.253 15.11C128.283 14.48 128.283 13.895 128.253 13.355C128.253 12.815 128.253 12.35 128.253 11.96C128.253 11.78 128.313 11.645 128.433 11.555C128.553 11.465 128.703 11.42 128.883 11.42C129.333 11.42 129.783 11.48 130.233 11.6C130.683 11.69 131.013 11.885 131.223 12.185C131.313 12.305 131.418 12.47 131.538 12.68C131.658 12.86 131.718 13.16 131.718 13.58C131.718 14.87 131.463 16.385 130.953 18.125C130.473 19.835 129.798 21.665 128.928 23.615C128.058 25.535 127.098 27.47 126.048 29.42C124.998 31.34 123.918 33.185 122.808 34.955C122.628 35.165 122.463 35.315 122.313 35.405C122.193 35.525 121.983 35.585 121.683 35.585ZM130.498 14.075C130.138 13.955 129.913 13.715 129.823 13.355C129.703 12.965 129.688 12.605 129.778 12.275C129.838 11.945 129.943 11.795 130.093 11.825C130.723 11.975 131.413 12.11 132.163 12.23C132.913 12.35 133.648 12.44 134.368 12.5C135.088 12.56 135.763 12.59 136.393 12.59C137.023 12.59 137.548 12.56 137.968 12.5C138.388 12.41 138.643 12.275 138.733 12.095C138.823 11.885 138.868 11.855 138.868 12.005C138.898 12.155 138.913 12.35 138.913 12.59C138.913 12.8 138.898 12.965 138.868 13.085C138.838 13.415 138.568 13.7 138.058 13.94C137.578 14.15 136.933 14.3 136.123 14.39C135.343 14.48 134.458 14.51 133.468 14.48C132.508 14.42 131.518 14.285 130.498 14.075ZM140.525 35.585C140.375 35.585 140.12 35.525 139.76 35.405C139.43 35.285 139.07 35.12 138.68 34.91C138.32 34.67 137.99 34.43 137.69 34.19C137.42 33.92 137.255 33.665 137.195 33.425C137.135 33.275 137.105 33.05 137.105 32.75C137.105 32.42 137.105 32 137.105 31.49C137.135 30.77 137.165 29.855 137.195 28.745C137.255 27.635 137.315 26.42 137.375 25.1C137.465 23.75 137.54 22.4 137.6 21.05C137.69 19.7 137.765 18.41 137.825 17.18C137.915 15.92 137.975 14.855 138.005 13.985C138.065 13.085 138.095 12.44 138.095 12.05C138.095 11.84 138.14 11.69 138.23 11.6C138.35 11.48 138.545 11.42 138.815 11.42C139.415 11.42 140.03 11.495 140.66 11.645C141.29 11.795 141.815 12.035 142.235 12.365C142.685 12.665 142.91 13.055 142.91 13.535C142.91 13.865 142.865 14.525 142.775 15.515C142.715 16.505 142.64 17.66 142.55 18.98C142.46 20.3 142.355 21.635 142.235 22.985C142.115 24.335 142.025 25.565 141.965 26.675C141.905 27.755 141.875 28.565 141.875 29.105C141.875 30.155 141.92 30.83 142.01 31.13C142.1 31.4 142.265 31.535 142.505 31.535C142.685 31.535 142.97 31.355 143.36 30.995C143.75 30.635 144.17 30.215 144.62 29.735C145.07 29.255 145.49 28.775 145.88 28.295C146.3 27.815 146.6 27.455 146.78 27.215C146.9 27.095 146.975 27.02 147.005 26.99C147.035 26.93 147.095 26.9 147.185 26.9C147.305 26.9 147.455 27.035 147.635 27.305C147.815 27.575 147.92 27.89 147.95 28.25C147.98 28.37 147.965 28.49 147.905 28.61C147.875 28.73 147.815 28.85 147.725 28.97C147.425 29.42 146.96 30.02 146.33 30.77C145.73 31.49 145.07 32.225 144.35 32.975C143.63 33.695 142.925 34.31 142.235 34.82C141.575 35.33 141.005 35.585 140.525 35.585ZM140.795 6.11C140.285 6.11 139.835 6.02 139.445 5.84C139.085 5.63 138.8 5.36 138.59 5.03C138.38 4.67 138.275 4.28 138.275 3.86C138.275 3.23 138.425 2.705 138.725 2.285C139.025 1.865 139.43 1.55 139.94 1.34C140.45 1.1 140.96 0.979998 141.47 0.979998C141.89 0.979998 142.28 1.07 142.64 1.25C143 1.4 143.285 1.655 143.495 2.015C143.735 2.375 143.855 2.855 143.855 3.455C143.855 3.905 143.705 4.34 143.405 4.76C143.105 5.15 142.715 5.48 142.235 5.75C141.755 5.99 141.275 6.11 140.795 6.11ZM144.499 33.245C144.349 33.395 144.184 33.425 144.004 33.335C143.824 33.215 143.674 33.02 143.554 32.75C143.434 32.48 143.359 32.225 143.329 31.985C143.269 31.715 143.329 31.52 143.509 31.4C144.529 30.44 145.519 29.36 146.479 28.16C147.439 26.93 148.294 25.64 149.044 24.29C149.794 22.94 150.394 21.62 150.844 20.33C151.294 19.01 151.549 17.795 151.609 16.685C151.669 16.355 151.774 16.28 151.924 16.46C152.074 16.64 152.209 16.985 152.329 17.495C152.419 17.795 152.494 18.11 152.554 18.44C152.614 18.77 152.629 19.145 152.599 19.565C152.599 20.165 152.389 21.02 151.969 22.13C151.579 23.21 151.009 24.41 150.259 25.73C149.539 27.05 148.699 28.385 147.739 29.735C146.749 31.055 145.669 32.225 144.499 33.245ZM157.369 35.585C156.379 35.585 155.344 35.405 154.264 35.045C153.184 34.685 152.164 34.115 151.204 33.335C150.994 33.215 150.859 33.02 150.799 32.75C150.739 32.48 150.709 32.255 150.709 32.075C150.709 31.685 150.769 31.28 150.889 30.86C151.009 30.44 151.174 30.23 151.384 30.23C151.504 30.23 151.729 30.38 152.059 30.68C152.419 30.95 152.869 31.265 153.409 31.625C153.979 31.985 154.654 32.315 155.434 32.615C156.214 32.885 157.099 33.02 158.089 33.02C158.629 33.02 159.184 32.915 159.754 32.705C160.324 32.495 160.804 32.165 161.194 31.715C161.614 31.265 161.824 30.68 161.824 29.96C161.824 29.33 161.659 28.805 161.329 28.385C161.029 27.935 160.609 27.545 160.069 27.215C159.529 26.855 158.914 26.48 158.224 26.09C157.534 25.7 156.799 25.22 156.019 24.65C154.579 23.72 153.529 22.76 152.869 21.77C152.209 20.75 151.879 19.52 151.879 18.08C151.879 17.12 152.119 16.13 152.599 15.11C153.079 14.06 153.874 13.19 154.984 12.5C156.094 11.78 157.564 11.42 159.394 11.42C160.564 11.42 161.674 11.615 162.724 12.005C163.804 12.395 164.719 12.95 165.469 13.67C165.679 13.79 165.799 13.955 165.829 14.165C165.889 14.375 165.919 14.585 165.919 14.795C165.919 15.275 165.829 15.71 165.649 16.1C165.469 16.46 165.274 16.64 165.064 16.64C164.974 16.64 164.764 16.505 164.434 16.235C164.104 15.935 163.669 15.62 163.129 15.29C162.619 14.93 161.989 14.615 161.239 14.345C160.519 14.075 159.694 13.94 158.764 13.94C158.374 13.94 157.939 14.03 157.459 14.21C157.009 14.39 156.619 14.69 156.289 15.11C155.989 15.53 155.839 16.085 155.839 16.775C155.839 17.345 155.989 17.84 156.289 18.26C156.619 18.68 157.069 19.085 157.639 19.475C158.209 19.865 158.884 20.3 159.664 20.78C160.444 21.23 161.314 21.8 162.274 22.49C163.564 23.33 164.479 24.185 165.019 25.055C165.559 25.925 165.829 26.99 165.829 28.25C165.829 29.72 165.409 31.01 164.569 32.12C163.729 33.23 162.664 34.085 161.374 34.685C160.084 35.285 158.749 35.585 157.369 35.585ZM158.614 35.54C158.314 35.54 158.254 35.42 158.434 35.18C158.584 34.97 158.869 34.715 159.289 34.415C159.679 34.115 160.099 33.83 160.549 33.56C160.999 33.29 161.359 33.14 161.629 33.11C162.829 32.9 163.984 32.42 165.094 31.67C166.174 30.89 167.179 29.96 168.109 28.88C169.039 27.77 169.849 26.6 170.539 25.37C171.259 24.11 171.859 22.895 172.339 21.725C172.849 20.525 173.224 19.475 173.464 18.575C173.554 18.125 173.734 17.93 174.004 17.99C174.304 18.05 174.514 18.305 174.634 18.755C174.754 19.205 174.619 19.85 174.229 20.69C173.959 21.35 173.569 22.28 173.059 23.48C172.549 24.68 171.874 25.97 171.034 27.35C170.224 28.73 169.234 30.05 168.064 31.31C166.894 32.54 165.529 33.56 163.969 34.37C162.409 35.15 160.624 35.54 158.614 35.54ZM180.607 35.585C179.437 35.585 178.327 35.42 177.277 35.09C176.227 34.76 175.297 34.205 174.487 33.425C173.707 32.645 173.077 31.565 172.597 30.185C172.147 28.805 171.922 27.095 171.922 25.055C171.922 21.665 172.387 18.98 173.317 17C174.247 14.99 175.477 13.565 177.007 12.725C178.537 11.855 180.232 11.42 182.092 11.42C184.702 11.42 186.562 11.915 187.672 12.905C188.782 13.865 189.337 15.125 189.337 16.685C189.337 17.855 189.067 18.86 188.527 19.7C188.017 20.51 187.312 21.185 186.412 21.725C185.542 22.235 184.582 22.625 183.532 22.895C182.512 23.135 181.492 23.255 180.472 23.255C179.782 23.255 179.107 23.225 178.447 23.165C177.787 23.075 177.202 22.985 176.692 22.895C176.692 23.075 176.677 23.39 176.647 23.84C176.647 24.29 176.647 24.695 176.647 25.055C176.647 26.735 176.842 28.16 177.232 29.33C177.622 30.47 178.207 31.34 178.987 31.94C179.797 32.54 180.802 32.84 182.002 32.84C182.782 32.84 183.517 32.72 184.207 32.48C184.927 32.21 185.572 31.895 186.142 31.535C186.712 31.175 187.147 30.86 187.447 30.59C187.747 30.38 187.942 30.23 188.032 30.14C188.152 30.05 188.257 30.005 188.347 30.005C188.497 30.005 188.617 30.155 188.707 30.455C188.827 30.725 188.887 31.04 188.887 31.4C188.887 31.52 188.857 31.64 188.797 31.76C188.767 31.88 188.662 32.045 188.482 32.255C187.492 33.245 186.322 34.055 184.972 34.685C183.652 35.285 182.197 35.585 180.607 35.585ZM177.052 20.645C177.172 20.765 177.547 20.915 178.177 21.095C178.837 21.245 179.572 21.32 180.382 21.32C181.342 21.29 182.167 21.11 182.857 20.78C183.577 20.42 184.132 19.895 184.522 19.205C184.912 18.485 185.107 17.585 185.107 16.505C185.107 15.635 184.852 14.9 184.342 14.3C183.832 13.7 183.052 13.4 182.002 13.4C181.282 13.4 180.577 13.64 179.887 14.12C179.227 14.57 178.642 15.335 178.132 16.415C177.652 17.465 177.292 18.875 177.052 20.645Z" fill="black"/>
</svg>
