<svg width="312" height="248" viewBox="0 0 312 248" fill="none" xmlns="http://www.w3.org/2000/svg">
<path d="M304.977 44.1395C299.963 40.4028 294.581 37.5245 288.489 35.8854C287.862 35.6926 287.277 35.4622 286.649 35.2694C285.474 34.888 284.35 34.3098 283.198 34.209C283.081 34.1629 282.96 34.1963 282.842 34.1502C280.306 33.8564 278.006 32.8968 275.618 32.0921C273.857 31.4802 272.13 30.9898 270.235 31.3285C269.912 31.3912 269.528 31.1315 269.172 31.0728C268.255 31.0641 267.431 30.821 266.611 30.4983C266.494 30.4522 266.415 30.448 266.34 30.3643C265.098 29.74 263.919 29.4381 262.435 29.5592C261.074 29.6467 259.431 29.7593 258.124 28.8921C256.729 28.8583 255.381 28.7071 254.061 28.0786C253.438 27.8063 252.68 27.806 251.964 27.7682C251.725 27.7555 251.524 27.7848 251.327 27.7345C249.815 27.6545 248.337 27.696 246.872 27.4987C243.82 27.1378 240.768 26.7768 237.683 26.2944C237.089 26.223 236.517 25.7538 235.936 25.4438C234.296 26.9132 232.362 25.8532 230.598 25.9993C230.527 25.8359 230.499 25.6349 230.386 25.5092C230.119 25.2956 229.847 25.1615 229.576 25.0275L229.407 25.1782C229.633 25.4295 229.9 25.6431 230.087 25.8526C227.453 25.8728 224.856 25.9349 222.221 25.9551C221.94 25.9801 221.659 26.0051 221.379 26.0302C219.319 25.7616 217.297 25.5349 215.263 26.2253C211.72 26.0778 208.24 26.931 204.655 26.8212C203.738 26.8126 202.821 26.8039 201.951 27.3564C201.456 27.6494 200.656 27.6869 200.066 27.536C199.082 27.2845 198.273 27.4811 197.375 27.8326C196.721 28.1171 195.912 28.3137 195.195 28.2758C193.567 28.1497 192.061 28.6686 190.592 29.2293C189.98 29.4762 189.334 29.6017 188.689 29.7271C187.482 29.9027 186.275 30.0782 185.03 30.2118C184.913 30.1658 184.716 30.1154 184.566 29.9479C182.222 27.6692 182.927 26.5095 184.43 24.6338C185.289 23.5621 186.458 22.6663 187.584 21.8081C189.21 20.5774 190.982 19.5938 192.65 18.3255C193.192 17.9152 194.147 17.9657 194.726 17.5974C195.886 16.8607 197.36 16.8988 198.491 15.9611C199.453 15.1741 200.899 15.0112 202.119 14.597C202.807 14.4338 203.495 14.2707 204.145 14.0657C204.289 13.6344 204.387 13.3204 204.573 12.8514C205.158 13.0819 205.697 13.4296 206.296 13.4214C207.012 13.4593 207.746 13.1789 208.472 13.0577C209.117 12.9323 209.725 12.7649 210.333 12.5976C211.395 12.1749 212.179 11.0194 213.522 11.2501C213.602 11.2543 213.854 11.0282 213.901 10.911C214.068 10.0819 214.713 9.95644 215.429 9.99433C217.063 10.0409 218.713 9.09073 220.353 10.4145C220.319 9.61463 220.337 9.29638 220.285 8.8148C222.349 9.00381 224.378 8.39298 226.244 9.96802C226.621 8.95055 226.854 8.36436 227.049 7.73628C228.21 7.67798 229.216 7.53169 230.386 7.99265C231.913 8.51234 233.548 9.23722 235.24 8.24943C235.487 8.10294 236.124 8.13662 236.312 8.34605C237.179 9.22987 238.315 8.89097 239.383 9.06715C240.647 9.29363 241.96 8.64493 243.113 9.42414C243.268 9.51212 243.675 9.37404 243.885 9.18566C244.389 8.73355 244.984 8.8049 245.443 9.14841C246.136 9.58411 246.717 9.89415 247.507 9.33743C247.713 9.22861 248.135 9.53023 248.49 9.58896C249.001 9.73566 249.619 10.0876 250.063 9.99138C251.719 9.64009 253.199 10.277 254.744 10.4784C255.02 10.533 255.292 10.667 255.573 10.642C259.615 10.417 263.581 11.5445 267.586 11.2777C268.026 11.261 268.504 11.2863 268.977 11.3911C271.228 11.7895 273.517 12.2299 275.769 12.6283C278.573 13.1358 281.415 13.6852 284.172 14.3099C287.009 14.9388 289.749 15.8818 292.488 16.8247C296.323 18.1449 300.125 19.3436 303.732 21.1704C305.399 22.0167 307.025 22.9007 308.254 24.4421C308.887 25.2337 309.642 25.9919 310.938 25.6615C311.044 25.1883 311.151 24.7151 311.216 24.2796C311.521 22.4204 311.588 20.5486 311.655 18.6768C311.686 18.1198 311.638 17.5587 311.469 17.031C311.234 16.2604 310.755 15.5568 309.949 14.9954C309.757 14.8656 309.527 14.6938 309.293 14.6016C305.148 12.4271 301.035 10.3741 296.61 8.90299C295.748 8.61799 294.924 8.3749 294.1 8.13179C291.666 7.44435 289.273 6.71923 286.796 6.06946C285.382 5.67546 283.871 5.59547 282.419 5.15956C281.005 4.76553 279.507 4.44684 278.042 4.24963C277.447 4.17828 276.895 4.06925 276.338 4.03978C274.124 3.68321 271.914 3.24711 269.7 2.89055C266.536 2.4039 263.409 1.95915 260.236 1.63165C256.585 1.27887 252.929 1.00566 249.307 0.853909C247.159 0.740243 244.997 0.865266 242.84 0.910725C240.963 0.931138 239.049 0.909684 237.206 1.05154C234.684 1.19742 232.115 1.46052 229.626 1.72783C228.985 1.77371 228.368 2.10017 227.755 2.34706C226.647 2.88697 225.478 3.10437 224.247 2.99934C221.95 3.39652 219.648 3.87328 217.351 4.27047C217.029 4.33319 216.556 4.22835 216.289 4.01471C214.995 2.90883 213.84 3.56598 212.686 4.2231C212.396 4.40727 212.064 4.62912 211.77 4.89286C210.933 5.56682 209.989 6.03556 208.893 5.65837C208.345 5.4698 208.046 5.81308 207.597 5.98883C207.35 6.13532 206.83 6.14776 206.559 6.01368C206.053 5.78741 205.565 5.24287 205.023 5.6531C204.607 5.9503 204.454 6.54073 204.146 7.04317C202.754 6.25133 201.342 6.53567 200.403 7.60325C199.637 8.44055 198.832 8.55758 197.92 8.46938C196.651 8.32247 195.495 8.30122 194.627 9.53212C194.147 10.2648 193.281 10.0594 192.56 10.101C191.32 10.1551 190.117 10.2511 189.366 11.5281C189.147 11.8756 188.619 12.0472 188.207 12.2648C186.599 13.1773 184.761 13.9179 183.378 15.0817C180.617 17.3297 177.926 19.741 177.465 23.6269C177.364 24.6989 177.066 25.7206 177.359 26.8932C177.976 29.3598 176.763 31.0513 174.312 32.0388C172.676 32.7503 171.11 33.625 169.37 34.0517C169.127 34.1186 168.786 34.4996 168.819 34.6211C169.186 35.8774 167.838 35.7263 167.483 36.346C167.036 37.2001 166.245 37.0784 165.557 37.2416C164.827 37.4424 164.098 37.6432 163.368 37.844C163.003 37.9444 162.601 38.0029 162.311 38.1871C160.858 39.1875 159.437 40.3093 158.021 41.3517C157.647 41.6112 157.297 42.1513 156.937 42.1721C155.814 42.2723 155.408 43.0888 154.923 43.901C154.48 44.6756 153.896 45.1235 152.89 45.2698C151.721 45.4872 150.95 46.4041 150.531 47.4592C149.967 48.9457 149.095 50.2561 148.335 51.6923C147.448 53.2414 146.745 55.0796 146.955 57.0059C147.194 59.8117 147.433 62.6174 147.714 65.3855C147.182 66.3149 146.322 66.7083 145.462 67.1017C138.705 70.1358 132.54 73.9993 126.586 78.3527C123.422 80.6591 121.247 83.816 119.03 87.0105C117.243 89.6691 117.117 92.5752 116.95 95.519C116.861 95.6739 116.819 95.7116 116.772 95.8289C115.353 97.6291 113.455 98.7257 111.515 99.86C109.042 101.245 106.682 102.756 104.542 104.598C104.038 105.051 103.462 105.339 102.883 105.708C101.929 106.336 100.638 106.586 100.473 108.094C100.417 108.37 100.038 108.709 99.7112 108.852C98.486 109.345 97.9918 110.317 97.9658 111.473C97.9115 112.427 97.4774 113.043 96.8046 113.646C94.3989 115.952 93.5526 118.9 93.5725 122.053C93.5524 123.808 92.6842 125.039 91.7741 126.307C90.0114 127.132 88.3987 128.124 86.5791 128.546C84.0298 129.17 82.1002 130.823 79.8465 131.861C77.5883 132.978 75.5041 134.544 73.4664 135.992C71.3867 137.478 69.4241 139.011 67.4195 140.58C66.9194 140.953 66.5274 141.531 66.1024 141.987C65.374 142.866 64.7252 143.75 64.0343 144.671C63.8195 144.939 63.4831 145.24 63.423 145.596C62.9073 147.643 61.6801 149.574 61.7124 151.81C61.7046 152.647 61.3785 153.468 61.2116 154.297C59.9023 154.866 59.7696 156.495 58.3717 157.219C55.5385 158.625 52.6961 160.191 50.1494 162.171C49.355 162.807 48.5231 163.401 47.7242 164.117C46.2526 165.436 44.7809 166.755 43.3468 168.115C42.9263 168.492 42.5809 168.953 42.315 169.417C39.3994 174.37 37.8648 179.596 38.8956 185.317C39.1698 186.807 39.3223 188.332 38.352 189.956C37.1313 190.37 35.6255 190.889 34.1196 191.408C33.6706 191.584 32.9876 191.667 32.8899 191.981C32.4059 193.472 31.3807 193.258 30.2203 193.317C28.5779 193.429 26.8605 193.458 25.6935 195.032C25.4367 195.338 24.9082 195.509 24.5013 195.647C21.9851 196.392 19.6098 197.464 17.4415 199.104C15.8152 200.335 13.8888 201.231 12.2956 202.583C9.06702 205.325 6.10559 208.28 4.51736 212.346C4.28446 212.932 3.85493 213.468 3.54247 214.05C0.754259 219.569 0.343848 225.373 1.59971 231.344C1.72711 231.91 1.9386 232.4 1.98644 232.961C2.59674 239.058 6.31525 243.125 10.8191 246.715C11.5454 247.272 12.3365 247.394 13.1639 246.879C14.0799 246.209 14.9538 245.577 15.9118 244.87C15.7741 243.785 15.4727 242.772 15.5271 241.817C15.544 240.82 16.6656 240.042 16.2187 238.781C13.4089 237.675 10.9626 235.79 8.64699 233.712C6.18133 231.467 5.41366 228.833 6.15641 225.6C6.68566 223.314 7.33198 221.074 8.52617 219.022C9.67832 217.008 11.0931 215.288 12.775 213.781C14.9239 211.78 17.2184 210.026 19.5264 208.033C19.4605 207.79 19.4035 207.388 19.3137 206.865C25.829 202.461 33.1527 199.976 40.6698 198.299C41.1621 198.763 41.5042 199.061 41.8794 199.48C42.2021 199.417 42.6045 199.359 42.9273 199.296C43.8581 199.066 44.6071 199.225 45.1608 200.012C45.5689 200.553 46.0282 200.896 46.6931 201.131C47.7889 201.508 48.8846 201.885 49.8736 202.736C50.6705 203.456 52.131 203.733 53.287 203.754C54.7657 203.713 56.0626 204.061 57.2993 204.765C58.0347 205.163 58.7793 205.401 59.7056 205.251C60.5102 205.134 61.4184 205.302 62.205 205.503C62.9915 205.704 63.6235 205.817 64.2587 205.173C64.469 204.984 64.9509 204.93 65.3112 204.909C69.0506 205.107 72.7933 204.547 76.4894 204.104C76.9713 204.05 77.4112 204.033 77.8885 204.058C80.4584 204.474 82.9055 204.244 85.2148 202.93C85.916 202.528 86.2957 202.867 86.4198 204.191C87.3985 204.522 88.3668 204.333 89.3158 203.785C89.8533 203.455 90.4329 203.086 91.008 202.797C90.8204 202.588 90.6703 202.42 90.4407 202.249C90.693 202.023 90.9078 201.755 91.193 201.65C91.5158 201.587 91.8716 201.646 92.2319 201.625C93.2856 202.04 94.0379 201.441 94.7527 200.801C95.4254 200.198 95.3071 199.474 95.2308 198.711C95.1261 197.748 95.0168 196.865 94.9121 195.902C94.6082 193.531 93.6497 191.446 92.1581 189.611C91.7125 189.029 91.0146 188.673 90.3541 188.358C87.7875 187.185 85.03 186.561 82.2124 186.292C79.7925 186.044 77.3636 185.955 74.9347 185.867C74.2186 185.829 73.489 186.03 72.7684 186.071C72.2069 186.121 71.6409 186.251 71.0885 186.142C69.7826 185.953 68.505 185.965 67.2139 186.216C66.7695 186.313 66.2456 186.405 65.8148 186.262C64.0961 185.612 62.6653 186.215 61.455 187.149C58.3372 186.545 55.3662 186.866 52.4941 187.552C50.9973 187.912 49.5186 187.953 48.082 187.957C46.6453 187.961 45.5949 186.788 44.7411 185.666C44.1499 184.836 44.3259 183.848 44.6565 182.948C45.4574 180.796 46.4505 178.773 48.0573 177.183C49.4915 175.822 51.0006 174.545 52.5564 173.151C52.3074 172.619 52.1334 172.171 51.8844 171.639C52.3003 171.342 52.8935 170.735 53.1652 170.869C54.7952 171.674 55.7144 170.246 56.9726 169.874C57.1362 169.802 57.3601 169.375 57.3316 169.174C57.2792 168.693 57.1098 168.165 57.6008 167.952C58.0122 167.734 58.4895 167.759 58.9339 167.663C59.7432 167.467 60.5478 167.35 61.3991 167.115C62.5356 166.776 63.5699 166.831 64.5123 167.799C64.4975 167.359 64.4736 167.078 64.4723 166.4C65.4613 167.25 66.3048 167.854 66.9005 168.603C67.1961 169.018 66.9541 169.763 66.9463 170.601C68.2445 171.627 69.7859 172.587 71.4909 173.475C72.9618 174.271 74.3861 175.184 75.8104 176.097C77.5019 177.224 79.3615 178.201 81.5097 178.314C82.6235 178.373 83.6818 178.708 84.782 179.006C87.2963 179.698 89.7174 180.624 92.3805 180.805C93.2557 180.851 94.1412 181.417 94.9232 181.697C95.7324 181.501 96.5507 181.145 97.3463 181.187C99.9764 181.246 102.597 181.465 105.223 181.604C107.011 181.738 108.803 181.793 110.345 180.638C110.598 180.412 111.038 180.395 111.44 180.337C113.288 180.115 115.131 179.973 117.017 179.794C117.859 179.719 118.342 180.343 118.956 180.774C119.458 181.08 120.057 181.072 120.336 180.369C120.425 180.214 120.438 179.975 120.527 179.82C120.615 179.665 120.863 179.519 120.98 179.565C122.432 180.001 123.135 178.162 124.6 178.36C126.66 178.628 128.394 177.603 130.068 176.933C130.567 175.882 129.313 176.175 129.452 175.145C130.185 174.186 130.795 172.583 132.886 172.294C133.015 173.538 131.635 173.944 131.459 174.932C131.914 175.355 132.334 174.978 132.666 174.756C133.161 174.463 133.582 174.087 133.885 173.664C135.724 170.808 136.537 167.739 135.932 164.355C135.785 163.43 135.676 162.546 135.688 161.629C135.662 159.992 135.158 158.329 134.972 156.684C134.739 154.477 133.664 153.023 131.459 152.508C131.263 152.457 131.15 152.332 131 152.164C130.925 152.08 130.93 152.001 130.855 151.917C131.013 151.247 131.556 151.515 131.954 151.536C133.147 151.599 134.373 151.784 135.609 151.809C136.049 151.793 136.498 151.617 136.942 151.521C136.861 150.838 137.114 150.612 137.783 150.767C138.681 150.416 139.556 150.462 140.418 150.747C139.548 151.3 138.64 151.132 137.779 150.847C137.484 151.111 137.232 151.337 136.938 151.6C137.392 152.023 137.767 152.442 138.535 152.283C139.583 152.099 140.626 151.995 141.674 151.811C141.374 151.476 141.074 151.141 140.773 150.806C141.368 150.877 141.92 150.986 142.515 151.058C142.262 151.284 142.006 151.589 141.753 151.815C142.25 152.201 142.774 152.109 143.265 151.895C143.04 151.644 142.777 151.351 142.594 151.062C143.025 151.204 143.334 151.38 143.307 151.858C143.804 152.243 144.361 152.272 144.898 151.942C146.967 152.051 148.875 151.474 150.83 150.779C151.522 150.537 152.256 150.256 152.972 150.294C155.443 150.345 157.806 150.191 160.097 149.195C161.65 148.559 163.376 148.371 164.999 147.898C166.094 147.597 167.113 147.212 167.621 146.002C167.896 145.378 168.504 145.211 169.267 145.131C172.804 144.68 174.448 143.131 175.12 139.735C175.617 137.327 175.636 134.894 175.495 132.453C175.48 132.013 175.227 131.561 175.133 131.117C175.005 130.552 174.681 129.936 174.825 129.505C175.263 128.131 174.652 126.942 174.486 125.656C174.249 124.207 173.382 123.323 172.225 122.624C171.068 121.924 169.742 121.375 168.501 120.751C170.086 120.236 170.086 120.236 171.388 120.505C172.769 120.777 174.108 121.087 175.489 121.36C176.238 121.519 176.912 121.595 177.514 120.829C177.771 120.523 178.534 120.444 179.053 120.431C179.97 120.44 180.92 120.57 181.875 120.621C184.023 120.734 186.176 120.768 188.314 120.363C189.081 120.204 189.985 120.451 190.78 120.493C191.735 120.544 192.705 121.034 193.667 120.247C193.962 119.983 194.556 120.055 195.033 120.08C197.865 120.11 200.672 119.86 203.418 119.287C205.677 118.848 207.847 117.885 210.276 117.974C211.071 118.016 211.894 117.58 212.675 117.183C213.704 116.639 214.648 116.17 215.846 116.154C216.127 116.128 216.487 116.108 216.655 115.957C218.052 114.555 220.05 114.501 221.729 113.752C223.692 112.898 225.592 112.48 227.722 112.911C228.588 113.117 229.552 113.008 230.398 112.854C230.759 112.833 231.146 112.335 231.328 111.945C231.645 111.284 232.16 111.351 232.688 111.179C233.095 111.041 233.516 110.664 233.655 110.313C233.888 109.726 233.966 109.052 234.082 108.42C234.442 105.606 234.68 102.826 234.441 100.02C234.426 99.5801 234.453 99.1027 234.49 98.4662C235.851 98.3787 237.034 97.9226 238.039 97.0979C238.749 96.537 239.554 96.4199 240.434 96.3867C242.109 96.3955 243.751 96.2829 245.412 95.852C246.506 95.5508 247.803 95.8988 248.88 95.9158C250.348 95.3551 251.699 94.7483 252.761 94.3256C253.711 94.4557 252.941 95.3726 253.783 95.2974C254.386 95.2096 255.069 95.1261 255.106 94.4896C255.118 93.5725 255.163 92.7769 255.949 92.2997C257.225 91.6091 258.548 90.8013 260.125 91.1242C260.322 91.1745 260.486 91.1033 260.804 91.1202C261.891 89.5418 262.707 87.8293 262.862 85.8025C263.151 82.1469 263.397 78.5289 263.245 74.8898C263.2 73.5707 261.874 70.2287 260.932 69.2611C260.027 68.3354 259.043 67.4055 258.054 66.5551C257.786 66.3415 257.435 66.2032 257.042 66.1026C256.532 65.9559 255.853 65.9599 255.431 65.6583C254.513 64.9712 253.641 64.167 252.806 63.4046C253.161 62.785 253.638 62.8102 254.065 63.0323C255.929 63.9289 258.146 63.5275 260.006 64.5037C260.353 64.7216 260.994 64.6757 261.4 64.5376C262.336 64.228 263.154 63.8723 263.942 64.7519C264.092 64.9195 264.695 64.8317 265.018 64.769C265.505 64.6351 266.047 64.2249 266.524 64.2501C267.399 64.2964 268.232 64.3804 269.108 64.4267C269.861 64.5065 270.535 64.5821 271.247 64.6995C271.682 64.7624 272.015 65.219 272.474 65.5625C273.231 64.8843 274.092 64.4909 275.234 64.7509C276.142 64.9186 277.106 64.81 278.023 64.8187C278.5 64.8439 278.991 64.6305 279.422 64.773C281.744 65.3347 284.088 64.8203 286.367 64.7414C287.766 64.6957 289.141 64.3695 290.507 64.2023C290.989 64.148 291.48 63.9346 291.873 64.0352C293.133 64.3413 294.311 63.9647 295.448 63.6258C298.689 62.7599 301.973 61.8563 304.688 59.7256C305.814 58.8674 306.547 57.9087 306.666 56.5184C306.803 54.81 307.062 53.068 307.157 51.3972C307.198 50.6812 307.201 49.9232 307.163 49.2029C307.139 48.9223 307.115 48.6418 307.049 48.3989C307.223 46.7323 306.434 45.1743 304.977 44.1395ZM209.93 11.9777C209.967 12.0196 210.084 12.0657 210.122 12.1076C210.192 12.2709 210.225 12.3924 210.254 12.5934C210.099 12.5054 209.982 12.4593 209.869 12.3336C209.832 12.2918 209.921 12.1368 209.93 11.9777ZM201.908 14.107C201.945 14.1488 202.067 14.1154 202.063 14.1949C202.096 14.3164 202.091 14.396 202.082 14.5551C202.053 14.3541 201.978 14.2703 201.908 14.107ZM16.8251 209.925C16.4887 210.226 16.1103 210.565 15.6898 210.942C15.5909 210.578 15.4828 210.373 15.5294 210.255C15.7157 209.786 16.0521 209.485 16.525 209.59C16.642 209.636 16.8251 209.925 16.8251 209.925ZM31.3376 200.319C31.0989 200.306 30.8227 200.251 30.5886 200.159C30.5511 200.117 30.6022 199.92 30.6158 199.682C30.892 199.736 31.1307 199.749 31.3648 199.841C31.4399 199.925 31.3467 200.159 31.3376 200.319ZM77.6768 195.867C77.0597 196.194 76.5073 196.085 75.9264 195.775C76.9879 195.352 77.0255 195.394 77.6768 195.867ZM70.6753 195.497C70.6378 195.455 70.7264 195.3 70.7685 195.263C71.0958 195.12 71.5072 194.903 71.7834 194.957C73.0473 195.184 74.3067 195.49 75.6082 195.758C74.2045 195.883 72.8429 195.971 71.4017 196.054C71.2426 196.046 71.0039 196.033 70.8493 195.945C70.7743 195.861 70.7083 195.618 70.6753 195.497ZM68.8215 195.12C68.8215 195.12 69.0181 195.17 68.892 195.283L68.8215 195.12ZM71.9337 202.826C72.0928 202.834 72.252 202.842 72.4066 202.93C72.4066 202.93 72.3975 203.09 72.393 203.169C72.2338 203.161 72.0747 203.152 71.9201 203.064C71.8826 203.022 71.9292 202.905 71.9337 202.826ZM123.658 164.783C122.872 165.26 122.083 165.817 121.264 166.173C118.885 167.324 116.476 168.274 113.719 167.649C113.283 167.586 112.764 167.599 112.357 167.737C111.333 168.201 110.378 168.151 109.311 167.974C108.759 167.865 108.197 167.916 107.598 167.924C102.797 168.149 97.9997 167.615 93.2998 166.768C89.7466 166.101 86.0118 165.824 82.8164 163.78C82.3947 163.478 81.7162 163.482 81.2058 163.335C79.5667 162.69 77.8345 162.279 75.8759 160.938C79.0889 159.871 81.7972 159.257 84.5716 158.885C86.2605 158.655 87.9449 158.505 89.6248 158.434C91.6229 158.38 93.5835 158.284 95.526 158.507C97.548 158.733 99.5655 159.04 101.633 158.471C102.442 158.274 103.454 158.727 104.357 158.974C104.788 159.116 105.172 159.376 105.678 159.602C106.711 158.979 107.722 158.753 108.906 158.975C112.45 159.801 116.054 160.271 119.585 161.336C120.488 161.583 121.397 161.751 122.296 162.078C123.462 162.618 124.095 163.41 123.658 164.783ZM77.5961 157.359C77.6426 157.241 77.7313 157.086 77.7778 156.969C77.8949 157.015 78.0916 157.066 78.2086 157.112C78.0825 157.225 77.9939 157.38 77.8302 157.451C77.7927 157.409 77.6756 157.363 77.5961 157.359ZM90.8074 155.185C90.929 155.151 91.0927 155.08 91.2143 155.047L91.3644 155.214C91.2427 155.248 91.0791 155.319 90.9575 155.352C90.9575 155.352 90.8825 155.268 90.8074 155.185ZM109.447 148.071C107.455 148.724 105.788 147.877 103.991 147.902C103.63 147.923 103.195 147.86 102.868 148.002C101.713 148.659 100.407 148.47 99.2977 148.332C98.0292 148.185 96.7983 148.08 95.6947 148.54C93.6933 149.352 91.6758 149.046 89.6777 149.1C88.2786 149.145 86.884 149.112 85.4758 149.316C83.3424 149.642 81.2421 150.09 79.1418 150.537C78.819 150.6 78.6372 150.99 78.4224 151.257C78.2963 151.37 78.1611 151.643 78.0815 151.638C76.7801 151.37 75.7619 152.433 74.573 152.291C73.1033 152.173 71.8031 152.583 70.4279 152.909C70.1052 152.972 69.7449 152.993 69.2675 152.968C69.382 151.657 70.2185 150.983 70.9753 150.305C74.1664 147.521 77.5075 144.905 81.3227 143.072C84.3571 141.636 87.4291 140.242 90.393 138.644C91.875 137.844 93.2968 137.401 95.0006 137.611C96.1112 138.427 97.465 139.177 98.0574 140.685C98.1654 140.89 98.3905 141.142 98.6247 141.234C101.674 143.031 105.032 144.326 108.394 145.541C108.825 145.684 109.307 145.63 109.747 145.613C111.942 145.609 112.527 145.84 115.011 147.767C113.092 147.825 111.117 147.481 109.447 148.071ZM222.977 27.3916C223.333 27.4503 223.689 27.509 224.044 27.5678C223.956 27.7227 223.98 28.0033 223.9 27.9991C223.577 28.0618 223.222 28.0031 222.861 28.0239C222.879 27.7056 222.94 27.3497 222.977 27.3916ZM226.637 30.3784C226.675 30.4202 226.628 30.5375 226.624 30.617C226.502 30.6505 226.296 30.7593 226.179 30.7132C225.945 30.621 225.758 30.4116 225.566 30.2817C225.654 30.1268 225.827 29.8966 225.827 29.8966C226.099 30.0306 226.328 30.2024 226.637 30.3784ZM211.213 27.9662L211.12 28.2007L210.97 28.0332L211.213 27.9662ZM152.93 56.4841C154.128 54.353 155.482 52.3098 157.294 50.6102C158.77 49.2119 160.397 47.9812 162.027 46.671C162.238 46.4826 162.518 46.4576 162.766 46.3111C165.557 44.9425 168.269 43.5697 170.981 42.197C171.017 41.5605 171.082 41.125 171.155 40.5304C172.503 40.6815 173.922 40.996 174.724 39.5221C174.813 39.3672 175.215 39.3087 175.496 39.2837C176.544 39.0997 177.559 38.7943 178.555 38.8071C180.432 38.7867 182.22 38.9212 183.771 40.3999C184.831 41.4136 186.311 42.0505 187.328 43.1018C188.533 44.3626 189.989 44.719 191.474 45.2763C192.176 45.5529 192.93 45.6327 193.628 45.9888C195.295 46.8352 196.916 47.7987 198.588 48.5655C202.242 50.2751 205.764 52.1772 209.646 53.3801C211.135 53.8579 212.666 54.2981 214.194 55.4961C213.427 55.655 212.715 55.5376 212.458 55.8432C211.132 57.409 209.891 56.7847 208.63 55.8003C208.246 55.5405 207.782 55.2766 207.342 55.2932C206.903 55.3099 206.445 55.6447 205.87 55.9335C204.483 55.0621 202.882 55.1371 201.161 55.2454C197.993 55.5168 194.81 55.3484 191.685 55.582C190.403 55.6738 189.248 56.3309 187.909 56.0207C187.595 55.9243 187.142 56.1796 186.89 56.4056C186.016 57.0377 185.043 57.3054 183.947 56.9283C183.282 56.6936 182.674 56.8609 182.062 57.1078C181.571 57.3212 181.005 57.4509 180.443 57.501C178.633 57.7643 176.752 57.8643 174.932 58.2867C173.72 58.5418 172.588 58.8011 171.348 58.8552C170.628 58.8969 169.706 58.9678 169.244 59.3823C168.319 60.2111 167.313 60.3574 166.185 60.5372C165.179 60.6835 164.239 61.0727 163.225 61.3781C162.046 61.7546 160.938 62.2945 159.731 62.4701C158.524 62.6456 157.326 62.662 156.317 63.5663C155.728 64.0937 154.853 64.0474 154.253 63.3772C152.593 61.6934 151.152 59.662 152.93 56.4841ZM219.366 61.356C219.408 61.3183 219.601 61.4482 219.718 61.4943C219.676 61.5319 219.592 61.6073 219.512 61.6031C219.39 61.6366 219.231 61.6281 219.072 61.6197C219.156 61.5444 219.282 61.4313 219.366 61.356ZM201.255 60.5972C201.292 60.6391 201.367 60.7229 201.363 60.8024C201.363 60.8024 201.241 60.8359 201.199 60.8735C201.162 60.8317 201.129 60.7102 201.091 60.6683C201.091 60.6683 201.213 60.6349 201.255 60.5972ZM194.685 61.0476C194.751 61.2905 194.859 61.4957 194.846 61.7344C194.837 61.8935 194.71 62.0066 194.622 62.1615C194.355 61.9478 194.083 61.8138 193.816 61.6001C193.863 61.4829 193.909 61.3657 193.951 61.328C194.236 61.2234 194.48 61.1564 194.685 61.0476ZM170.319 66.4219C169.655 66.8656 169.116 66.5179 168.54 66.1283C169.172 66.2415 169.724 66.3505 170.319 66.4219ZM159.05 63.9104L158.873 64.2202C158.836 64.1783 158.803 64.0569 158.765 64.015C158.849 63.9397 158.971 63.9062 159.05 63.9104ZM171.456 89.1858C173.023 88.9895 174.176 89.7687 175.324 90.6274C172.836 91.5731 171.858 91.242 171.456 89.1858ZM167.39 87.0155C166.375 87.3209 165.85 86.7345 165.283 86.1858C166.601 85.4575 167.749 86.3163 168.929 86.6181C169.088 86.6266 169.187 86.9909 169.328 87.3176C168.537 87.1959 167.877 86.8817 167.39 87.0155ZM138.316 79.7713L138.152 79.8425C138.19 79.8844 138.199 79.7252 138.316 79.7713ZM123.914 93.7329C125.145 91.0448 126.872 88.7421 129.396 87.1599C130.182 86.6828 130.821 85.9585 131.494 85.3557C131.788 85.0919 132.003 84.824 132.335 84.6021C135.144 82.9153 137.954 81.2285 140.801 79.5836C141.834 78.9599 142.942 78.42 143.933 77.834C144.732 75.0035 145.392 74.6393 147.846 75.6869C147.925 75.6911 148 75.7749 148.08 75.7791C148.67 75.93 148.856 75.4611 149.038 75.0717C150.03 75.1641 151.04 74.9382 152.046 74.7919C152.729 74.7084 153.647 74.717 154.181 75.1443C155.671 76.3005 157.661 77.0841 158.058 79.2199C160.052 79.2455 161.598 80.1254 163.186 80.9675C166.132 82.48 166.592 82.8236 167.544 84.3104C166.688 84.6242 165.833 84.9381 165.01 85.3734C164.556 85.6287 164.936 85.968 165.119 86.2569C164.512 87.1027 163.736 87.4207 162.687 86.9263C162.415 86.7922 162.228 86.5828 161.951 86.5283C161.834 86.4822 161.666 86.6329 161.465 86.6621C161.232 87.2483 162.235 87.86 161.239 88.5255C160.963 88.471 160.603 88.4919 160.294 88.3159C158.308 87.4527 156.215 87.0627 154.109 86.9113C153.393 86.8735 152.714 86.8775 152.397 87.539C151.861 88.5481 150.719 88.2881 150.051 88.8114C148.929 89.5899 148.128 88.949 147.191 88.5803C147.036 88.4923 146.793 88.5592 146.634 88.5508C146.302 88.7726 146.012 88.9568 145.681 89.1787C145.307 89.4382 144.933 89.6977 144.596 89.9991C143.587 90.9034 143.138 91.0791 141.902 90.3753C140.552 89.5457 139.467 89.6878 138.332 90.7051C138.121 90.8935 137.911 91.0818 137.537 91.3414C134.897 90.7628 132.263 91.4613 129.659 92.361C128.681 92.7082 127.741 93.0974 126.764 93.4447C125.786 93.792 124.814 94.0598 123.836 94.4071C123.943 93.9339 123.91 93.8124 123.914 93.7329ZM162.912 92.0854C162.508 91.4656 162.067 90.8038 161.438 89.9326C162.271 90.0166 162.866 90.0879 163.381 90.1551C164.264 89.3639 165.129 88.8909 166.151 89.8627L164.09 91.7089C163.978 91.5832 163.828 91.4157 163.715 91.29C163.463 91.5161 163.169 91.7798 162.912 92.0854ZM159.317 91.4563C159.092 91.205 158.866 90.9537 158.641 90.7023C159.324 90.6188 159.362 90.6607 159.317 91.4563ZM154.148 92.5394C154.017 92.732 153.305 92.6146 152.917 92.4344C152.252 92.1997 151.596 91.8059 150.781 91.4037C151.945 90.5874 152.755 91.0692 153.561 91.6306C153.828 91.8442 154.586 91.8444 154.148 92.5394ZM143.447 118.587C144.143 118.265 144.775 118.378 145.539 118.977C144.515 119.442 143.93 119.211 143.447 118.587ZM101.156 120.619C102.916 118.438 104.868 116.387 106.82 114.335C108.352 112.661 110.03 111.233 111.97 110.099C112.629 109.735 113.175 109.245 113.759 108.797C115.428 107.529 117.275 106.629 119.286 106.336C120.374 107.551 121.71 108.619 122.433 109.934C123.26 111.534 124.963 111.744 126.056 112.879C126.168 113.005 126.318 113.172 126.473 113.26C126.782 113.436 127.166 113.696 127.485 113.713C129.005 113.634 130.107 114.61 131.441 114.999C132.148 115.196 132.855 115.393 133.604 115.553C135.14 115.913 136.853 115.964 138.169 116.672C139.678 117.51 141.535 117.13 142.95 118.202C143.104 118.29 143.217 118.416 143.33 118.541C142.035 119.55 140.721 120.199 139.082 119.553C137.947 120.571 136.754 120.508 135.479 119.762C134.861 119.41 134.34 118.744 133.489 118.978C132.041 120.577 132.004 120.536 130.303 119.568C129.994 119.392 129.68 119.295 129.25 119.153C129.05 119.861 128.98 120.376 128.785 121.004C126.037 120.22 123.292 121.471 120.59 120.57C120.218 121.508 119.666 122.077 118.703 122.186C117.135 122.382 115.493 122.495 114.029 122.976C113.094 123.286 112.247 123.44 111.348 123.114C110.486 122.829 109.625 122.544 108.721 122.296C107.608 122.916 106.425 123.372 106.138 124.913C104.958 124.611 103.895 124.355 102.795 124.058C101.732 123.802 100.62 124.421 99.4911 123.923C99.6477 122.574 100.423 121.578 101.156 120.619ZM144.96 127.047C144.062 127.398 143.295 127.557 142.611 126.962C143.345 126.682 144.083 126.322 144.96 127.047ZM141.61 124.914C141.614 124.835 141.577 124.793 141.544 124.671C141.586 124.634 141.67 124.558 141.708 124.6C141.787 124.604 141.862 124.688 141.9 124.73L141.61 124.914ZM136.845 124.503C136.889 125.143 136.482 125.281 136.126 125.223C135.653 125.118 135.063 124.967 135.394 124.067C135.904 124.213 136.414 124.36 136.845 124.503ZM133.566 125.327C133.29 125.272 133.056 125.18 132.859 125.13C132.864 125.05 132.91 124.933 132.952 124.895C133.116 124.824 133.317 124.795 133.434 124.841C133.514 124.845 133.5 125.084 133.566 125.327ZM129.648 124.76C129.756 124.965 129.599 125.635 129.477 125.669C128.991 125.803 128.476 125.736 127.713 125.815C127.95 125.149 127.982 124.592 128.272 124.408C128.692 124.031 129.32 124.224 129.648 124.76ZM125.518 125.818C125.472 125.936 125.224 126.082 125.107 126.036C124.714 125.936 124.325 125.755 123.974 125.617C124.025 125.42 124.076 125.223 124.127 125.027C124.52 125.127 124.955 125.19 125.344 125.37C125.424 125.375 125.527 125.659 125.518 125.818ZM121.56 125.968C121.513 126.085 121.415 126.399 121.378 126.358C121.139 126.345 120.905 126.253 120.671 126.161C120.876 126.052 121.082 125.943 121.367 125.838C121.405 125.88 121.56 125.968 121.56 125.968ZM120.587 126.236C120.484 126.629 120.345 126.981 120.284 127.337C119.535 127.178 118.828 126.981 117.845 126.729C118.826 125.624 119.626 125.587 120.587 126.236ZM115.996 126.272C115.936 126.628 115.838 126.942 115.773 127.378C115.422 127.239 115.146 127.185 114.996 127.017C114.733 126.724 114.681 126.243 115.088 126.105C115.293 125.996 115.64 126.214 115.996 126.272ZM109.836 127.941C109.71 128.054 109.542 128.205 109.462 128.201C109.148 128.105 108.877 127.97 108.605 127.836C108.928 127.774 109.251 127.711 109.573 127.648C109.653 127.652 109.761 127.858 109.836 127.941ZM99.0039 126.171L98.7697 126.079L98.8959 125.966L99.0039 126.171ZM102.918 129.61C102.922 129.531 102.927 129.451 102.969 129.414L103.212 129.347C103.091 129.38 102.964 129.493 102.918 129.61ZM145.146 151.795C145.118 151.594 145.052 151.351 145.023 151.15C145.182 151.159 145.341 151.167 145.501 151.176C145.365 151.448 145.277 151.603 145.146 151.795ZM142.584 147.749C142.303 147.774 141.942 147.795 141.662 147.82C141.582 147.816 141.47 147.69 141.47 147.69C141.516 147.573 141.609 147.339 141.689 147.343C141.97 147.318 142.325 147.377 142.564 147.389C142.597 147.511 142.593 147.59 142.584 147.749ZM157.736 140.212C157.619 140.166 157.423 140.115 157.306 140.069C157.306 140.069 157.315 139.91 157.357 139.872C157.516 139.881 157.675 139.889 157.797 139.856C157.792 139.935 157.745 140.053 157.736 140.212ZM169.204 139.222C168.766 139.917 168.116 140.123 167.292 139.879C167.678 138.703 167.678 138.703 168.988 138.812C169.026 138.854 169.092 139.097 169.204 139.222ZM167.697 136.27C165.999 136.659 165.999 136.659 165.013 137.844C164.631 138.262 164.402 138.769 164.019 139.188C163.804 139.455 163.51 139.719 163.183 139.861C163.061 139.895 162.672 139.715 162.602 139.551C162.272 138.337 161.826 137.755 160.867 137.784C160.03 137.779 159.22 137.976 158.336 138.089C155.243 138.444 152.278 139.364 149.118 138.798C148.683 138.735 148.197 138.869 147.752 138.965C146.386 139.132 144.978 139.337 143.574 139.462C142.732 139.538 141.81 139.608 141.07 139.29C139.59 138.653 138.145 138.816 136.638 138.656C134.016 138.438 131.391 138.299 128.779 137.921C126.284 137.59 123.798 137.099 121.275 136.567C119.421 136.189 117.563 135.892 115.849 135.162C113.666 134.249 111.479 133.415 109.237 132.857C108.881 132.799 108.45 132.656 108.267 132.367C107.718 131.5 106.834 131.613 106.001 131.529C105.682 131.512 105.373 131.336 104.554 131.014C106.135 130.579 107.187 130.315 108.239 130.052C108.805 129.922 109.376 129.713 109.891 129.78C110.326 129.843 110.701 130.262 111.203 130.567C111.131 129.726 111.2 129.211 111.958 129.211C112.239 129.186 112.515 129.24 112.754 129.253C113.791 128.55 114.985 128.613 116.154 128.395C117.605 128.153 119.046 128.07 120.289 127.258C121.005 127.295 121.717 127.413 122.4 127.329C126.138 126.849 129.829 126.486 133.611 126.646C135.492 126.546 137.378 126.366 139.249 126.425C140.326 126.442 141.458 126.183 142.456 126.874C141.965 127.088 141.432 127.339 140.941 127.552C141.546 128.143 142.271 128.022 142.987 128.06C145.612 128.198 148.238 128.337 150.552 129.737C151.555 130.348 152.702 130.529 153.51 129.654C154.601 130.11 155.491 130.596 156.47 130.928C158.628 131.56 160.838 131.997 162.996 132.63C164.991 133.334 166.776 134.226 167.697 136.27ZM148.599 118.501C148.566 118.379 148.533 118.258 148.542 118.099C148.701 118.107 148.818 118.153 148.977 118.162L149.043 118.405C148.88 118.476 148.72 118.467 148.599 118.501ZM153.453 119.436C153.294 119.428 153.098 119.377 152.938 119.369C152.981 119.331 153.027 119.214 153.069 119.176C153.228 119.185 153.425 119.235 153.584 119.243C153.537 119.361 153.533 119.44 153.453 119.436ZM153.401 116.161C154.533 115.902 154.533 115.902 155.217 116.497C154.585 116.384 154.229 116.325 153.401 116.161ZM159.425 116.879C161.123 116.49 162.56 117.165 164.007 117.68C161.313 118.056 160.723 117.905 159.425 116.879ZM166.881 120.466C166.718 120.537 166.516 120.566 166.357 120.558C166.24 120.512 166.17 120.348 166.057 120.223C166.221 120.151 166.427 120.043 166.544 120.089C166.74 120.139 166.769 120.34 166.881 120.466ZM166.9 118.033C166.657 118.1 166.339 118.083 166.1 118.07C166.02 118.066 165.954 117.823 165.884 117.66C166.286 117.601 166.651 117.501 167.175 117.409C167.035 117.761 167.022 117.999 166.9 118.033ZM169.601 118.255L169.652 118.059L169.806 118.147L169.601 118.255ZM181.908 117.949C181.782 118.062 181.655 118.175 181.534 118.208C181.492 118.246 181.384 118.041 181.271 117.915C181.435 117.844 181.594 117.853 181.758 117.781L181.908 117.949ZM185.185 118.561C185.143 118.599 184.983 118.591 184.946 118.549C184.871 118.465 184.88 118.306 184.809 118.142C184.969 118.151 185.128 118.159 185.287 118.168C185.24 118.285 185.231 118.444 185.185 118.561ZM194.314 118.007C196.522 117.765 198.445 117.627 200.453 118.092C197.942 118.757 195.986 118.774 194.314 118.007ZM202.306 117.791C202.147 117.783 202.03 117.737 201.875 117.649C202.039 117.578 202.161 117.544 202.324 117.473C202.404 117.477 202.483 117.481 202.6 117.528C202.474 117.641 202.386 117.796 202.306 117.791ZM227.82 110.483C227.296 110.575 226.909 111.073 226.376 111.324C225.885 111.537 225.347 111.868 224.828 111.881C223.068 111.947 221.337 112.215 219.635 112.683C217.89 113.189 216.188 113.658 214.49 114.047C213.559 114.277 212.346 113.854 212.063 115.315C211.123 115.704 210.212 116.294 209.209 115.683C208.438 115.921 208.562 117.244 207.448 117.186C206.903 116.239 206.153 115.401 206.305 114.132C206.721 113.835 207.137 113.538 207.553 113.241C206.64 113.153 205.77 113.027 204.89 113.06C204.609 113.085 204.31 113.428 204.02 113.613C204.311 114.107 204.57 114.48 204.786 114.89C204.823 114.932 204.697 115.045 204.608 115.2C202.386 115.681 200.144 115.123 197.86 115.282C197.77 114.758 197.751 114.398 197.69 114.076C196.477 113.652 195.453 114.117 194.466 114.623C194.864 114.644 195.388 114.552 195.343 115.348C194.903 115.365 194.459 115.461 194.061 115.44C193.902 115.431 193.761 115.105 193.611 114.937L194.27 114.573C192.725 114.372 191.218 114.212 189.631 114.048C188.84 113.927 187.993 114.081 187.318 113.327C187.425 112.854 187.569 112.423 187.671 112.029C185.331 111.786 183.042 111.345 180.854 112.626C180.195 112.99 179.231 113.099 178.702 112.592C177.942 111.914 177.175 112.072 176.3 112.026C174.751 111.904 173.113 111.937 171.679 111.183C171.216 110.919 170.575 110.965 170.018 110.936C169.302 110.898 168.539 110.977 167.785 110.897C166.002 110.683 164.298 110.473 162.566 110.063C160.796 109.61 158.92 109.63 157.066 109.253C153.953 108.569 150.779 108.242 147.661 107.638C145.452 107.202 143.293 106.569 141.135 105.936C138.705 105.169 136.363 104.247 134.017 103.405C132.884 102.986 131.751 102.567 130.766 101.637C130.906 101.285 131.041 101.013 131.181 100.661C130.306 100.615 129.426 100.648 128.312 100.589C128.695 100.171 128.872 99.8607 129.036 99.7895C131.398 98.9569 133.764 98.0446 136.158 97.3334C138.389 96.6933 140.729 96.2585 142.988 95.8194C144.723 95.4723 146.553 95.5691 148.021 94.33C148.315 94.0663 148.947 94.1795 149.349 94.121C150.753 93.9958 152.157 93.8705 153.527 93.6239C154.131 93.5361 154.752 93.1301 155.252 92.7575C155.879 92.2719 155.4 91.5683 155.436 90.9318C155.445 90.7727 155.613 90.6219 155.833 90.2744C156.628 90.3165 157.541 90.4047 158.458 90.4134C158.324 91.3639 158.399 91.4477 159.209 91.2511C160.315 92.1475 161.499 92.3698 162.808 91.8007C163.215 91.6626 163.617 91.6041 164.024 91.466C165.111 92.0023 166.202 92.459 167.451 92.2458C167.839 91.7476 167.501 91.3706 167.159 91.0732C166.667 90.6083 167.083 90.3111 167.265 89.9217C166.913 89.7834 166.562 89.6451 166.211 89.5068C166.253 89.4691 166.295 89.4315 166.374 89.4357C168.727 88.7621 168.844 88.8082 170.289 90.76C170.472 91.049 170.768 91.4637 171.086 91.4805C172.781 91.8495 174.504 92.4195 176.205 91.2726C178.383 92.2656 180.708 92.0694 183.011 92.2711C183.717 91.7897 184.462 92.0286 185.173 92.1461C187.383 92.5822 189.592 93.0183 191.764 93.4125C192.949 93.6348 194.268 93.5849 195.317 94.0793C197.533 95.1143 199.902 95.5588 202.363 95.7689C202.64 95.8234 202.92 95.7984 203.192 95.9325C206.853 96.8045 210.477 97.6346 214.133 98.5862C219.873 100.087 225.427 102.057 229.815 106.279C230.003 106.488 230.279 106.543 230.471 106.673C230.503 108.909 229.719 110.064 227.82 110.483ZM226.66 88.1166C226.497 88.1877 226.333 88.2589 226.174 88.2504C226.141 88.129 226.15 87.9699 226.117 87.8484C226.276 87.8568 226.435 87.8653 226.636 87.836C226.669 87.9575 226.702 88.0789 226.66 88.1166ZM237.238 94.3422C237.042 94.2919 236.85 94.1621 236.653 94.1118C236.695 94.0741 236.779 93.9987 236.863 93.9234C237.06 93.9737 237.294 94.0659 237.491 94.1162C237.407 94.1915 237.276 94.3841 237.238 94.3422ZM241.305 89.49C241.146 89.4816 240.987 89.4731 240.828 89.4647C240.828 89.4647 240.795 89.3433 240.8 89.2637C240.921 89.2302 241.122 89.201 241.244 89.1675C241.239 89.2471 241.272 89.3685 241.305 89.49ZM252.245 88.6723C252.156 88.8272 252.105 89.024 251.984 89.0574C251.74 89.1244 251.418 89.1871 251.179 89.1745C250.982 89.1242 250.799 88.8352 250.691 88.63C250.654 88.5881 250.911 88.2824 251.032 88.249C251.392 88.2281 251.748 88.2869 252.024 88.3414C252.174 88.5089 252.287 88.6346 252.245 88.6723ZM256.329 87.7312C255.913 88.0284 255.497 88.3256 255.006 88.539C254.884 88.5725 254.65 88.4803 254.537 88.3546C254.462 88.2709 254.523 87.9149 254.602 87.9191C255.056 87.6638 255.542 87.53 256.033 87.3165C256.183 87.4841 256.216 87.6055 256.329 87.7312ZM253.459 77.1652C254.079 78.1955 255.03 79.0039 255.855 79.9254C256.306 80.428 256.76 80.8511 257.168 81.3914C257.943 82.5097 257.702 83.9335 256.393 84.5026C255.327 85.0048 254.285 85.7876 252.95 85.3978C252.557 85.2972 252.028 85.4687 251.579 85.6445C250.523 85.9876 249.499 86.4521 248.437 86.8747C248.12 87.5363 247.803 88.1978 247.444 88.897C246.56 89.0099 245.713 89.1646 244.908 89.2816C244.621 90.8226 244.415 90.9314 243.066 90.1019C243.512 88.5693 245.45 88.8714 246.257 87.318C244.451 87.5018 242.884 87.6981 241.321 87.815C239.44 87.9149 237.55 88.174 235.724 87.9976C233.66 87.8087 231.699 87.226 229.565 87.5521C229.163 87.6106 228.657 87.3843 228.184 87.2795C227.356 87.1159 226.569 86.9147 225.698 86.7889C221.813 86.3439 217.868 86.2549 214.001 85.4917C211.712 85.0513 209.381 84.6487 207.092 84.2083C205.987 83.9903 204.924 83.7345 203.815 83.596C198.39 82.8701 193.16 81.516 187.856 80.0782C185.145 79.3363 182.443 78.4352 179.816 77.6179C176.875 76.7042 173.851 75.8658 171.325 73.9765C170.828 73.5911 170.117 73.4737 169.536 73.1636C167.864 72.3969 166.154 71.5882 164.403 70.8172C164.518 70.1849 164.625 69.7117 164.69 69.2762C164.801 68.7235 164.908 68.2503 164.973 67.8149C164.513 67.4713 164.246 67.2577 163.942 67.0022C165.246 66.5126 165.288 66.4749 166.099 66.9567C167.176 67.6521 168.272 68.0293 169.521 67.8161C170.368 67.6614 170.559 67.1129 170.281 66.38C170.677 65.0443 171.593 64.3745 172.983 64.488C173.301 64.5048 173.615 64.6012 173.97 64.6599C174.395 64.2036 174.844 64.0278 175.463 64.3798C175.772 64.5557 176.278 64.782 176.446 64.6313C177.652 63.7774 178.467 64.1796 179.372 65.1053C180.014 65.7378 180.533 65.7254 180.897 64.9466C181.391 63.9752 182.19 63.2594 183.019 63.4229C184.044 63.6368 184.73 62.7953 185.526 62.8373C186.06 63.2646 186.482 63.5663 186.636 63.6542C188.83 62.9723 190.626 62.2693 192.505 63.6056C193.081 63.9952 193.576 63.7022 193.964 63.204C194.146 62.8146 194.365 62.4671 194.547 62.0777C195.815 62.2246 197.046 62.3297 198.315 62.4766C199.583 62.6235 200.88 62.9714 202.156 62.2808C202.362 62.172 202.802 62.1554 202.914 62.281C203.782 63.1649 204.707 62.336 205.545 62.3404C207.103 62.3032 208.73 61.7509 210.052 63.0577C210.202 63.2253 210.717 63.2924 210.843 63.1794C211.722 62.4677 212.627 63.3935 213.6 63.1257C213.563 60.9691 211.523 61.0607 210.333 60.2396C211.319 59.7331 212.058 59.3732 213.112 59.7881C214.404 60.2156 214.621 61.3044 214.927 62.2383C218.039 62.2434 220.736 63.224 223.504 64.368C223.925 63.9912 224.27 63.5307 224.761 63.3173C225.215 63.0619 225.813 63.0537 226.3 62.9199C226.675 63.3387 227.097 63.6404 227.738 63.5945C227.363 63.1756 226.941 62.874 226.379 62.9241C225.812 62.3753 225.189 62.103 224.385 62.22C224.104 62.2451 223.757 62.0272 223.364 61.9266C224.779 60.2059 224.737 60.2436 226.241 61.1611C227.744 62.0786 229.341 62.7616 231.194 62.4606C231.798 62.3728 232.509 62.4903 232.726 63.5791C231.968 63.5789 231.29 63.5829 230.569 63.6246C229.731 63.6202 228.936 63.5781 228.098 63.5736C228.638 64.5997 229.495 64.9643 230.558 65.22C233.746 65.9872 236.883 66.9512 239.61 68.8113C241.017 67.9281 242.155 68.2676 243.215 69.2813C243.819 69.8719 244.471 70.3453 245.202 70.8229C246.739 71.8618 248.36 72.8254 249.938 73.8267C251.442 74.7442 252.581 75.7621 253.459 77.1652ZM216.531 56.4976C216.774 56.4307 217.022 56.2842 217.059 56.3261C217.209 56.4936 217.317 56.6988 217.463 56.9459C217.299 57.0171 217.094 57.1259 216.977 57.0798C216.826 56.9123 216.719 56.707 216.531 56.4976ZM236.976 63.9237C237.018 63.886 237.107 63.7311 237.144 63.773C237.261 63.819 237.374 63.9447 237.491 63.9908C237.449 64.0285 237.402 64.1457 237.323 64.1415C237.206 64.0954 237.093 63.9698 236.976 63.9237ZM240.999 57.7523L240.891 57.5471L241.125 57.6393L240.999 57.7523ZM243.072 57.7822C242.992 57.778 242.913 57.7738 242.833 57.7696C242.917 57.6942 243.006 57.5393 243.085 57.5435C243.244 57.5519 243.361 57.598 243.516 57.686C243.357 57.6776 243.193 57.7487 243.072 57.7822ZM243.722 57.5772C243.722 57.5772 243.722 57.5772 243.806 57.5018C243.848 57.4642 243.927 57.4684 244.007 57.4726L243.722 57.5772ZM260.397 61.1329C260.238 61.1244 259.995 61.1914 259.957 61.1495C259.737 60.8186 259.521 60.4082 259.3 60.0773C259.647 60.2951 260.036 60.4753 260.382 60.6932C260.462 60.6974 260.406 60.9737 260.397 61.1329ZM298.29 59.2674C298.724 58.6519 299.116 58.0741 299.512 57.4168C299.838 58.7108 299.67 58.8616 298.29 59.2674ZM301.657 55.4953C301.022 56.14 300.269 56.7386 299.517 57.3372C298.047 57.2196 296.672 57.5458 295.097 58.5797C296.356 58.8858 297.223 59.0912 298.168 59.3008C297.92 59.4473 297.715 59.5562 297.509 59.665C294.446 60.8995 291.157 61.2042 288.089 62.5183C287.435 62.8029 286.606 62.6393 285.848 62.6391C283.527 62.7557 281.196 62.3531 278.885 62.9889C278.642 63.0559 278.324 63.039 278.094 62.8672C275.855 61.5517 273.055 63.0794 270.871 61.4875C270.834 61.4456 270.712 61.4791 270.59 61.5126C269.43 61.5709 268.312 61.5915 267.189 61.6917C266.987 61.721 266.828 61.7125 266.627 61.7418C265.986 61.7877 265.303 61.8712 264.765 62.2019C263.686 62.9428 262.871 62.5406 261.751 61.8828C261.984 61.2966 262.217 60.7104 262.487 60.1661C261.977 60.0194 261.383 59.9481 260.877 59.7218C260.179 59.3657 259.65 59.5372 259.104 60.027C256.954 59.2349 254.507 59.4646 252.553 58.0445C252.286 57.8308 251.636 58.0358 251.192 58.132C250.668 58.224 250.139 58.3956 249.854 58.5002C248.973 57.855 248.415 57.1472 247.666 56.9878C246.13 56.6273 244.51 56.3421 242.994 56.3417C241.679 56.312 240.541 55.9724 239.585 55.2435C238.166 54.2507 236.55 53.8859 234.893 53.5588C234.261 53.4456 233.587 53.3701 232.96 53.1773C230.843 52.5067 228.694 51.7146 226.573 51.1236C220.051 49.342 213.724 46.9324 207.579 44.1334C201.551 41.3805 195.621 38.3136 190.041 34.7065C189.811 34.5348 189.624 34.3253 189.478 34.0782C189.403 33.9944 189.539 33.7223 189.636 33.4082C190.343 33.6053 191.013 33.7604 191.64 33.9532C191.986 33.4927 192.247 33.1075 192.42 32.8772C194.071 32.6055 195.521 32.363 196.972 32.1205C197.55 31.0738 198.604 31.4886 199.45 31.3339C201.303 31.0329 202.975 31.7997 204.721 31.9719C204.88 31.9803 205.048 31.8296 205.212 31.7585C205.276 31.323 205.341 30.8875 205.41 30.3725C206.529 30.3518 207.53 30.2851 208.489 30.256C208.813 30.8717 209.067 31.3241 209.321 31.7764C212.607 32.2295 212.607 32.2295 214.276 31.6396C213.475 30.9986 212.23 31.1323 211.409 30.1312C212.813 30.006 213.885 30.1026 214.929 30.6766C216.016 31.2129 216.972 31.9418 218.362 32.0553C218.361 31.3769 218.351 30.8576 218.312 30.1374C219.127 30.5396 219.796 30.6947 220.293 31.0801C221.671 32.1106 223.225 32.1529 224.862 32.1199C225.981 32.0993 227.141 32.041 228.213 32.1376C230.637 32.3057 233.011 32.6707 235.491 32.5625C237.049 32.5253 238.669 32.8105 240.246 33.1334C240.878 33.2466 241.37 33.7116 241.951 34.0216C242.746 33.3853 243.583 33.3897 244.301 34.106C243.936 34.2064 243.529 34.3445 243.164 34.4449C243.665 34.7507 244.035 34.5708 244.338 34.1479C246.682 33.6335 249.378 33.9357 251.799 34.8619C252.188 35.042 252.576 35.2222 252.928 35.3605C253.129 35.3312 253.288 35.3397 253.489 35.3104C254.761 34.6994 255.959 34.683 257.233 35.4287C257.851 35.7806 258.633 36.0614 259.312 36.0574C261.511 35.9743 263.502 36.7579 265.534 37.5039C266.433 37.8307 267.328 38.2372 268.207 38.2039C268.806 38.1957 269.321 38.2628 269.878 38.2923C271.624 38.4645 273.352 38.9549 275.037 39.483C276.606 39.965 278.011 40.5182 279.136 41.7747C279.887 42.6125 280.814 43.1404 282.096 43.0486C282.695 43.0404 283.314 43.3923 283.899 43.6228C284.836 43.9916 285.81 44.4022 286.746 44.771L286.784 44.8129C287.72 45.1816 288.699 45.5127 289.547 46.0364C292.639 47.796 295.689 49.5934 298.692 51.5079C299.695 52.1196 300.515 53.1206 301.345 53.9626C302.118 54.4025 302.082 55.039 301.657 55.4953Z" fill="#DEE2E6"/>
</svg>
