<svg width="49" height="50" viewBox="0 0 49 50" fill="none" xmlns="http://www.w3.org/2000/svg">
<rect width="49" height="50" rx="4" fill="#262626"/>
<path d="M24.8136 49.1259C37.7994 49.1259 48.3264 38.3526 48.3264 25.063C48.3264 11.7734 37.7994 1 24.8136 1C11.8278 1 1.30078 11.7734 1.30078 25.063C1.30078 38.3526 11.8278 49.1259 24.8136 49.1259Z" fill="#262626"/>
<path d="M37.8625 16.8224C37.0572 17.1521 36.091 17.4817 35.2857 17.6465C35.7689 17.6465 36.252 16.8224 36.5741 16.4928C36.8962 15.9983 37.2183 15.5039 37.3793 14.8446V14.6798H37.2183C36.252 15.1743 35.2857 15.6687 34.1584 15.8335C33.9973 15.8335 33.9974 15.8335 33.9974 15.8335C33.8363 15.6687 33.8363 15.6687 33.6753 15.5039C33.1921 15.1743 32.709 14.8446 32.2258 14.515C31.5816 14.1854 30.7764 14.0206 29.9712 14.1854C29.1659 14.1854 28.5218 14.515 27.8776 14.8446C27.2334 15.1743 26.5892 15.6687 26.1061 16.328C25.6229 16.9872 25.3008 17.6465 25.1398 18.4706C24.9787 19.2946 24.9787 19.9539 25.1398 20.778C25.1398 20.9428 25.1398 20.9428 24.9787 20.9428C20.7915 20.2835 17.2485 18.8002 14.3496 15.5039C14.1886 15.3391 14.1886 15.3391 14.0275 15.5039C12.7392 17.4817 13.3834 20.4483 14.9938 21.9317C15.1549 22.0965 15.477 22.2613 15.638 22.5909C15.477 22.5909 14.5107 22.4261 13.5444 21.9317C13.3834 21.9317 13.3834 21.9317 13.3834 22.0965C13.3834 22.2613 13.3834 22.4261 13.3834 22.7558C13.5444 24.7335 14.9938 26.5465 16.7653 27.2057C16.9264 27.3706 17.2485 27.3706 17.4095 27.3706C16.9264 27.5354 16.6043 27.5354 15.477 27.3706C15.3159 27.3706 15.3159 27.3706 15.3159 27.5354C16.1211 30.0076 18.0537 30.6669 19.5031 31.1613C19.6642 31.1613 19.8252 31.1613 20.1473 31.1613C19.6642 31.8206 18.0537 32.4798 17.2485 32.6446C15.7991 33.1391 14.3496 33.3039 12.9002 33.1391C12.7392 33.1391 12.5781 33.1391 12.5781 33.1391V33.3039C12.9002 33.4687 13.2223 33.6335 13.5444 33.7983C14.5107 34.2928 15.477 34.7872 16.4433 34.952C21.7578 36.4354 27.5555 35.2817 31.5816 31.3261C34.6415 28.1946 35.7689 23.9095 35.7689 19.4595C35.7689 19.2946 35.9299 19.1298 36.091 19.1298C36.8962 18.4706 37.5404 17.8113 38.1846 16.9872C37.8625 17.152 37.8625 16.9872 37.8625 16.8224Z" fill="white"/>
</svg>
